USFL
nRows=299
nColumns=2
inDegrees=yes
endheader
time	soleus_r	
2.0291	 31.929932	
2.06237	 31.923648	
2.09563	 31.934026	
2.1289	 31.929442	
2.16216	 31.928839	
2.19542	 31.922762	
2.22869	 31.924221	
2.26195	 31.921921	
2.29522	 31.924004	
2.32848	 31.923523	
2.36174	 31.958075	
2.39501	 31.987770	
2.42827	 32.062104	
2.46154	 32.077906	
2.4948	 32.039802	
2.52806	 32.036759	
2.56133	 32.022905	
2.59459	 32.056784	
2.62786	 32.057353	
2.66112	 32.115292	
2.69438	 32.094989	
2.72765	 32.030098	
2.76091	 32.034077	
2.79418	 31.976433	
2.82744	 31.956112	
2.8607	 31.994043	
2.89397	 31.992754	
2.92723	 32.023912	
2.9605	 31.915615	
2.99376	 31.893511	
3.02702	 31.890599	
3.06029	 31.957468	
3.09355	 31.938708	
3.12682	 32.004473	
3.16008	 32.018038	
3.19334	 32.004109	
3.22661	 32.044087	
3.25987	 32.101670	
3.29314	 32.066914	
3.3264	 32.091276	
3.35966	 32.124192	
3.39293	 32.144191	
3.42619	 32.184774	
3.45946	 32.175468	
3.49272	 32.175955	
3.52598	 32.175679	
3.55925	 32.175518	
3.59251	 32.179882	
3.62578	 32.170083	
3.65904	 32.166309	
3.6923	 32.221724	
3.72557	 32.238707	
3.75883	 32.218529	
3.7921	 32.173588	
3.82536	 32.213853	
3.85862	 32.220754	
3.89189	 31.409170	
3.92515	 31.397305	
3.95842	 31.415310	
3.99168	 31.417253	
4.02494	 31.428412	
4.05821	 31.429346	
4.09147	 31.447501	
4.12474	 31.434821	
4.158	 31.438376	
4.19126	 31.431109	
4.22453	 31.445001	
4.25779	 31.458413	
4.29106	 31.478319	
4.32432	 31.462154	
4.35758	 31.416378	
4.39085	 31.432059	
4.42411	 31.367746	
4.45738	 31.357990	
4.49064	 31.372049	
4.5239	 31.412504	
4.55717	 31.384889	
4.59043	 31.384669	
4.6237	 31.388846	
4.65696	 31.387056	
4.69022	 31.397325	
4.72349	 31.414901	
4.75675	 31.395509	
4.79002	 31.372380	
4.82328	 31.362211	
4.85654	 31.347495	
4.88981	 31.354028	
4.92307	 31.390891	
4.95634	 31.410699	
4.9896	 31.404758	
5.02286	 31.398459	
5.05613	 31.389291	
5.08939	 28.263394	
5.12266	 28.243355	
5.15592	 28.251858	
5.18918	 28.217895	
5.22245	 28.209699	
5.25571	 28.182312	
5.28898	 28.108057	
5.32224	 28.062900	
5.3555	 28.087081	
5.38877	 28.064530	
5.42203	 28.034014	
5.4553	 28.004985	
5.48856	 28.024235	
5.52182	 28.032526	
5.55509	 28.032903	
5.58835	 28.040025	
5.62162	 28.060894	
5.65488	 28.053333	
5.68814	 28.048983	
5.72141	 28.031716	
5.75467	 28.055799	
5.78794	 28.056010	
5.8212	 28.039991	
5.85446	 28.042950	
5.88773	 28.043277	
5.92099	 28.043066	
5.95426	 28.048091	
5.98752	 28.055595	
6.02078	 28.044168	
6.05405	 28.064795	
6.08731	 28.142156	
6.12058	 28.169622	
6.15384	 28.160824	
6.1871	 28.115922	
6.22037	 28.101445	
6.25363	 28.096727	
6.2869	 28.057892	
6.32016	 28.031544	
6.35342	 28.049819	
6.38669	 28.077946	
6.41995	 28.046483	
6.45322	 28.089720	
6.48648	 28.074392	
6.51974	 28.114935	
6.55301	 28.140389	
6.58627	 28.119281	
6.61954	 28.075824	
6.6528	 28.079059	
6.68606	 28.073980	
6.71933	 28.074260	
6.75259	 28.076304	
6.78586	 28.051997	
6.81912	 28.162776	
6.85238	 28.132094	
6.88565	 28.203328	
6.91891	 28.103713	
6.95218	 28.064841	
6.98544	 28.143422	
7.0187	 28.155849	
7.05197	 28.132799	
7.08523	 28.168984	
7.1185	 28.176061	
7.15176	 28.177928	
7.18502	 28.191702	
7.21829	 28.187774	
7.25155	 28.181131	
7.28482	 28.145501	
7.31808	 28.148517	
7.35134	 28.146617	
7.38461	 28.150311	
7.41787	 28.158458	
7.45114	 28.149736	
7.4844	 28.150413	
7.51766	 28.150492	
7.55093	 28.177047	
7.58419	 28.156957	
7.61746	 28.150540	
7.65072	 28.139715	
7.68398	 28.133301	
7.71725	 28.123198	
7.75051	 28.118531	
7.78378	 28.094478	
7.81704	 28.080628	
7.8503	 28.076178	
7.88357	 28.092460	
7.91683	 28.092965	
7.9501	 28.082323	
7.98336	 28.060458	
8.01662	 28.069144	
8.04989	 28.078553	
8.08315	 28.088780	
8.11642	 28.061792	
8.14968	 28.104892	
8.18294	 28.054980	
8.21621	 28.063293	
8.24947	 28.076030	
8.28274	 28.164889	
8.316	 28.229980	
8.34926	 28.273469	
8.38253	 28.220089	
8.41579	 28.193249	
8.44906	 28.172069	
8.48232	 28.148401	
8.51558	 28.138459	
8.54885	 28.133566	
8.58211	 28.111156	
8.61538	 28.091551	
8.64864	 28.092605	
8.6819	 28.088807	
8.71517	 28.090074	
8.74843	 28.105793	
8.7817	 28.114526	
8.81496	 28.108032	
8.84822	 28.084347	
8.88149	 27.984885	
8.91475	 27.994833	
8.94802	 28.003865	
8.98128	 27.965883	
9.01454	 27.943470	
9.04781	 27.873431	
9.08107	 27.923655	
9.11434	 27.891625	
9.1476	 27.900751	
9.18086	 27.890281	
9.21413	 27.818880	
9.24739	 27.781283	
9.28066	 27.772331	
9.31392	 27.777588	
9.34718	 27.749835	
9.38045	 27.724502	
9.41371	 27.687238	
9.44698	 27.671940	
9.48024	 27.677294	
9.5135	 27.698254	
9.54677	 27.696593	
9.58003	 27.763853	
9.6133	 27.760915	
9.64656	 27.835160	
9.67982	 27.796552	
9.71309	 27.801581	
9.74635	 27.786593	
9.77962	 27.786162	
9.81288	 27.762342	
9.84614	 27.747077	
9.87941	 27.731939	
9.91267	 27.762931	
9.94594	 27.769589	
9.9792	 27.763037	
10.0125	 27.749863	
10.0457	 27.754446	
10.079	 27.752968	
10.1123	 27.748164	
10.1455	 27.741146	
10.1788	 27.739440	
10.212	 27.774289	
10.2453	 27.832492	
10.2786	 27.764202	
10.3118	 27.622388	
10.3451	 27.608225	
10.3784	 27.604832	
10.4116	 27.641750	
10.4449	 27.569029	
10.4782	 27.513054	
10.5114	 27.542195	
10.5447	 27.517717	
10.578	 27.540690	
10.6112	 27.531366	
10.6445	 27.543008	
10.6777	 27.549137	
10.711	 27.559884	
10.7443	 27.620840	
10.7775	 27.637845	
10.8108	 27.612132	
10.8441	 27.610115	
10.8773	 27.619215	
10.9106	 27.588799	
10.9439	 27.510222	
10.9771	 27.518105	
11.0104	 27.516803	
11.0436	 27.533588	
11.0769	 27.555956	
11.1102	 27.540695	
11.1434	 27.536889	
11.1767	 27.543458	
11.21	 27.536777	
11.2432	 27.539050	
11.2765	 27.553529	
11.3098	 27.574416	
11.343	 27.583142	
11.3763	 27.581436	
11.4096	 27.609699	
11.4428	 27.632985	
11.4761	 27.671375	
11.5093	 27.660492	
11.5426	 27.668184	
11.5759	 27.621822	
11.6091	 27.578663	
11.6424	 27.552778	
11.6757	 27.544347	
11.7089	 27.526692	
11.7422	 27.409515	
11.7755	 27.391514	
11.8087	 27.425305	
11.842	 27.427864	
11.8752	 27.422884	
11.9085	 27.477684	
11.9418	 27.544817	
